<svg width="64" height="64" viewBox="0 0 64 64" fill="none" xmlns="http://www.w3.org/2000/svg">
  <path d="M10 27C10 19.268 16.268 13 24 13H40C47.732 13 54 19.268 54 27V31H10V27Z" fill="#8B5A2B"/>
  <path d="M14 27C14 21.477 18.477 17 24 17H40C45.523 17 50 21.477 50 27V31H14V27Z" fill="#B87932"/>
  <path d="M8 29H56V51C56 53.209 54.209 55 52 55H12C9.791 55 8 53.209 8 51V29Z" fill="#7A4A22"/>
  <path d="M8 29H56V39H8V29Z" fill="#C78B3B"/>
  <path d="M13 39H51V51H13V39Z" fill="#9A5D27"/>
  <path d="M8 29H56" stroke="#3B2413" stroke-width="4" stroke-linecap="round"/>
  <path d="M12 55H52C54.209 55 56 53.209 56 51V29H8V51C8 53.209 9.791 55 12 55Z" stroke="#3B2413" stroke-width="4" stroke-linejoin="round"/>
  <path d="M10 29V27C10 19.268 16.268 13 24 13H40C47.732 13 54 19.268 54 27V29" stroke="#3B2413" stroke-width="4" stroke-linecap="round"/>
  <path d="M20 13V55" stroke="#D7B56D" stroke-width="4"/>
  <path d="M44 13V55" stroke="#D7B56D" stroke-width="4"/>
  <rect x="25" y="32" width="14" height="14" rx="2" fill="#E2BD58" stroke="#3B2413" stroke-width="4"/>
  <path d="M32 37V42" stroke="#3B2413" stroke-width="3" stroke-linecap="round"/>
</svg>
